<?xml version="1.0" encoding="utf-8"?>
<!-- Svg Vector Icons : http://www.sfont.cn -->
<!DOCTYPE svg PUBLIC "-//W3C//DTD SVG 1.1//EN" "http://www.w3.org/Graphics/SVG/1.1/DTD/svg11.dtd">
<svg version="1.1" xmlns="http://www.w3.org/2000/svg" xmlns:xlink="http://www.w3.org/1999/xlink" x="0px" y="0px" viewBox="0 0 1000 1000" enable-background="new 0 0 1000 1000" xml:space="preserve">
<metadata> Svg Vector Icons : http://www.sfont.cn </metadata>
<g><g transform="translate(0.000000,511.000000) scale(0.100000,-0.100000)"><path d="M2000.4,4559.7c-85.1-81.5-88.6-106.4-88.6-503.5v-418.4l-904.1-1187.8L100,1262.3l14.2-230.5c21.3-379.4,248.2-772.9,556.7-978.6l134.7-88.6v-2116.7l3.5-2116.7l92.2-78l92.2-81.5h3999.4c3992.3,0,3999.4,0,4095.1,74.4l92.2,70.9v2120.3V-42.5l138.3,92.2c304.9,202.1,531.8,592.1,563.8,968l17.7,219.8l-911.3,1202l-907.6,1201.9v418.4c0,393.6-3.5,418.4-88.6,499.9l-85.1,88.6H4996.4H2085.5L2000.4,4559.7z M7542.2,3967.6l10.6-134.7H5000H2443.6v117c0,67.4,10.6,131.2,24.8,141.8c10.6,14.2,1155.8,21.3,2542.2,17.7l2520.9-10.6L7542.2,3967.6z M3181.1,3237.2c-3.5-17.7-163.1-432.6-347.5-921.9l-336.8-893.5h-790.7H915.5l698.5,921.9l694.9,921.9h443.2C2996.7,3265.6,3188.2,3251.4,3181.1,3237.2z M4712.8,2343.7v-921.9h-819c-471.6,0-811.9,14.2-804.8,31.9c7.1,17.7,163.1,432.6,347.5,921.9l336.8,889.9h468h471.6V2343.7z M6556.5,2375.6c184.4-489.3,344-904.1,347.5-921.9c7.1-17.7-343.9-31.9-804.9-31.9h-819.1v921.9v921.9h471.6h468L6556.5,2375.6z M8378.9,2343.7l698.5-921.9h-790.6h-790.7l-336.8,889.9c-184.3,489.3-340.4,904.1-347.4,921.9c-7.1,17.7,184.3,31.9,429,31.9h439.7L8378.9,2343.7z M2337.3,843.9c0-81.6-248.2-343.9-404.2-425.5c-113.5-60.3-205.7-78-411.3-78c-205.6,0-297.8,17.7-411.3,78c-156,81.5-404.2,343.9-404.2,425.5c0,35.5,163.1,46.1,815.5,46.1S2337.3,879.4,2337.3,843.9z M4641.9,847.5c0-81.5-156-269.4-297.8-361.6c-290.7-191.5-631.1-205.7-943.1-46.1c-145.4,74.5-390,336.8-390,418.4c0,17.7,340.4,31.9,815.5,31.9C4432.7,890,4641.9,879.4,4641.9,847.5z M6982,858.1c0-17.7-53.2-102.8-117-184.4c-258.9-340.4-769.4-439.6-1155.9-226.9C5531.8,546.1,5351,744.7,5351,843.9c0,35.5,180.8,46.1,815.5,46.1C6641.6,890,6982,875.8,6982,858.1z M9286.6,843.9c0-81.6-248.2-343.9-404.2-425.5c-113.4-60.3-205.6-78-411.3-78c-205.6,0-297.8,17.7-411.3,78c-156,81.5-404.2,343.9-404.2,425.5c0,35.5,163.1,46.1,815.5,46.1S9286.6,879.4,9286.6,843.9z M2833.6,180.9c88.6-81.5,262.4-195,386.5-258.8c219.8-106.4,255.3-113.5,624-113.5c343.9,3.5,414.8,14.2,592.1,95.7c113.4,53.2,283.6,170.2,382.9,262.4l177.3,166.6l177.3-166.6c99.3-92.2,269.5-209.2,382.9-262.4c177.3-81.5,248.2-92.2,592.1-95.7c372.3,0,404.2,7.1,627.6,117c127.6,60.3,301.4,177.3,382.9,258.8l145.4,141.8l159.6-145.4C7708.8-46,8035-184.3,8371.9-202l276.5-17.7v-1836.6v-1840.2l-2045.8,7.1l-2049.4,10.6l-17.7,1606.1c-17.7,1538.8-21.3,1609.7-85.1,1659.3c-102.8,74.5-2350.7,74.5-2453.5,0c-63.8-49.6-67.4-120.5-85.1-1659.3l-17.7-1606.1l-273-10.6l-276.5-10.6v1840.1v1840.2l283.6,17.7c230.5,14.2,326.2,39,538.9,145.4c141.8,70.9,315.6,184.4,379.4,251.7c67.4,70.9,127.6,127.6,127.6,127.6C2677.6,322.7,2748.6,258.9,2833.6,180.9z M4003.7-2496v-1400.5h-780h-780V-2496v1400.5h780h780V-2496z"/><path d="M6060.1-1010.4c-106.4-63.8-209.2-124.1-226.9-131.2c-17.7-7.1,35.5-124.1,113.5-258.8c81.5-138.3,148.9-258.8,148.9-273c0-14.2-134.7-24.8-301.4-24.8h-301.4v-283.7v-283.6h301.4c166.7,0,301.4-10.6,301.4-21.3c0-14.2-63.8-134.8-141.8-273c-78-134.7-138.3-251.8-134.7-255.3c39-35.5,460.9-269.4,468-258.8c7.1,3.5,70.9,117,141.8,248.2c74.4,131.2,145.4,248.2,159.6,255.3c14.2,10.6,95.7-102.8,177.3-248.2l152.5-265.9l198.5,113.4c113.4,60.3,216.3,124.1,234,138.3c14.2,17.7-39,148.9-120.6,297.8l-145.4,269.5h322.6h322.6l-10.6,276.5l-10.7,273l-308.4,17.7l-308.5,17.7l141.8,244.7c78,134.7,134.8,258.8,131.2,276.5c-7.1,17.7-109.9,85.1-230.5,152.5l-216.3,124.1l-149-265.9c-85.1-145.4-166.6-255.3-180.8-244.7c-17.7,10.7-88.6,120.6-159.6,244.7c-67.4,127.6-138.3,234-148.9,244.7C6265.8-897,6166.5-946.6,6060.1-1010.4z"/></g></g>
</svg>