<?xml version="1.0" encoding="utf-8"?>
<!-- Svg Vector Icons : http://www.sfont.cn -->
<!DOCTYPE svg PUBLIC "-//W3C//DTD SVG 1.1//EN" "http://www.w3.org/Graphics/SVG/1.1/DTD/svg11.dtd">
<svg version="1.1" xmlns="http://www.w3.org/2000/svg" xmlns:xlink="http://www.w3.org/1999/xlink" x="0px" y="0px" viewBox="0 0 1000 1000" enable-background="new 0 0 1000 1000" xml:space="preserve">
<metadata> Svg Vector Icons : http://www.sfont.cn </metadata>
<g><g transform="translate(0.000000,511.000000) scale(0.100000,-0.100000)"><path d="M562.8,5000c-179.7-25.4-337.9-142.6-414.1-306.7l-41-89.8L101.9,150C97.9-4768.3,88.2-4416.7,221-4590.6c39.1-52.8,107.4-105.5,179.7-142.6l115.2-58.6h4482.8h4484.7l111.3,54.7c125,60.5,197.3,136.7,257.8,267.6l41,87.9l5.9,4433.9c2,3097.9-1.9,4465.2-15.6,4535.5c-37.1,179.7-181.7,339.9-359.4,396.5c-60.5,19.5-984.4,25.4-4475,27.3C2631.4,5011.8,611.7,5007.9,562.8,5000z M9458.1,4630.9c97.7-52.7,93.8,171.9,93.8-4533.6c0-3463.2-5.8-4391-25.4-4430c-13.7-27.4-54.7-64.4-91.8-82c-64.5-33.2-316.4-35.2-4433.9-35.2s-4369.5,1.9-4433.9,35.2c-37.1,17.6-78.1,54.7-91.8,82c-19.5,39.1-25.4,968.8-25.4,4439.8c0,4721.1-5.9,4467.2,91.8,4523.8C592.1,4660.2,9403.4,4660.2,9458.1,4630.9z"/><path d="M2082.5,3441.3c-5.9-15.6-54.7-156.3-105.5-312.5l-95.7-283.2l-337.9-9.8l-339.9-9.8l267.6-203.1c146.5-111.3,267.6-207.1,267.6-212.9c0-9.8-173.8-562.5-191.4-607.5c-5.9-15.6,115.2,58.6,267.6,164.1l279.3,191.4l263.7-181.7c144.5-97.7,265.6-175.8,269.6-171.9c5.9,3.9-31.3,132.8-78.1,287.1c-48.8,152.4-87.9,291-87.9,306.7c0,13.7,119.1,119.2,265.6,232.4l265.7,205.1h-341.8h-341.8l-107.4,318.4C2141.1,3333.9,2090.3,3458.9,2082.5,3441.3z"/><path d="M3484.9,2816.3c-109.4-43-140.6-201.2-56.6-283.2l46.9-48.8h2613.5c2023.6,2,2621.3,5.9,2644.7,25.4c85.9,66.4,97.7,181.7,29.3,261.7l-46.9,54.7l-2595.9,3.9C4682.3,2831.9,3506.4,2826,3484.9,2816.3z"/><path d="M2021.9,706.7c-41-123.1-89.9-271.5-111.3-326.2L1873.5,277h-334h-334l211-160.2C1533.6,27,1654.7-66.8,1684-94.1l54.7-48.8L1645-445.7c-52.7-166-93.8-304.7-89.9-308.6c2-3.9,119.2,72.3,259.8,169.9c140.6,97.7,261.7,179.7,271.5,181.7c7.8,3.9,125-68.4,259.8-162.1c132.8-91.8,253.9-173.8,269.5-183.6c33.2-19.5,33.2-15.6-84,345.8l-85.9,267.6l263.7,201.2l265.6,201.2l-330.1,5.9L2313,277l-107.4,328.1l-109.4,326.2L2021.9,706.7z"/><path d="M3428.3,228.2c-64.5-62.5-64.5-164.1-2-238.3l46.9-54.7l2586.1-5.8c2429.9-3.9,2588.1-2,2650.6,29.3c109.4,56.6,128.9,191.4,41,279.3c-39.1,39.1-76.2,39.1-2656.5,39.1H3475.2L3428.3,228.2z"/><path d="M1988.7-1930.2l-107.4-322.3l-332.1-9.8l-334-9.8l261.7-201.2c222.7-171.9,259.8-207.1,252-244.2c-5.9-23.5-48.8-162.1-95.7-306.7c-46.9-144.6-82-267.6-78.1-269.5c2-3.9,115.2,68.4,248.1,160.2c134.8,91.8,257.8,171.9,273.5,179.7c19.5,7.8,125-52.7,289.1-166c142.6-97.7,261.7-173.8,265.7-169.9c3.9,3.9-37.1,142.6-87.9,310.6l-95.7,304.7l263.7,201.2l265.6,201.2l-332.1,5.9l-332.1,3.9l-107.4,328.2l-109.4,326.2L1988.7-1930.2z"/><path d="M3467.4-2285.7c-105.5-60.5-119.2-181.7-31.3-271.5l56.7-56.7h2601.8h2601.8l56.6,56.7c76.2,78.1,76.2,160.2,0,238.3l-56.6,56.6H6100.4C4186.2-2264.2,3496.7-2270.1,3467.4-2285.7z"/></g></g>
</svg>