<?xml version="1.0" encoding="utf-8"?>
<!-- Svg Vector Icons : http://www.sfont.cn -->
<!DOCTYPE svg PUBLIC "-//W3C//DTD SVG 1.1//EN" "http://www.w3.org/Graphics/SVG/1.1/DTD/svg11.dtd">
<svg version="1.1" xmlns="http://www.w3.org/2000/svg" xmlns:xlink="http://www.w3.org/1999/xlink" x="0px" y="0px" viewBox="0 0 1000 1000" enable-background="new 0 0 1000 1000" xml:space="preserve">
<metadata> Svg Vector Icons : http://www.sfont.cn </metadata>
<g><path d="M493.3,871.7c2.8,2.6,5.8,3.7,8.9,3.7c7.9,0,16.5-6.8,23.4-12.2l31-24.4c4.3-1.1,8.1-2.4,11.5-4.1c1.4,0.9,3.1,1.9,4.7,3l8.6,5.8l12.9-19.2l-8.7-5.8c-0.3-0.2-0.6-0.4-0.8-0.6c3.7-9.3,2.2-20.1-4.1-30.7c-8.9-15-28.9-30.3-48.8-28.5c-15.2,1.3-21.8,8.8-24.5,14.8c-6.4,14,2.2,32.1,8.5,42.5c-0.5,0.5-0.9,1.1-1.2,1.6c-3-0.2-6-0.6-9.3-1c-34.6-4.3-41.3-11.8-42.5-13.9c-1.8-3.4,1.4-10.4,4.2-16.7c4.1-9,9.3-20.1,3.2-30.5c-6.2-10.6-20.4-13-31.9-13.9c-23.6-1.8-34.4,7.6-39.2,15.8c-17.8,30.5,20.8,91.3,28.7,103.2l19.3-12.8c-15.9-23.9-35.8-65.4-28-78.7c2.6-4.5,10.9-4.8,17.4-4.4c9.1,0.7,12.6,2.4,13.4,2c-0.3,2.1-2.4,6.6-3.7,9.7c-4.7,10.1-11.1,23.9-3.5,37.6c7.3,13.1,24.9,21,56.9,25.3C484.4,862.9,488.8,867.2,493.3,871.7z M528.4,783.1c0,0,1.1-1,5.4-1.4c0.3-0.1,0.6-0.1,1-0.1c8.4,0,20.3,7.9,26,17.4c0.8,1.5,2.2,4.2,2.6,6.9l-1.6-0.8l-15.4,12c-0.8,0.2-1.8,0.3-2.7,0.4l0.8-0.9l-5.1-7C531.5,799.1,526.8,786.1,528.4,783.1z"/><path d="M612.9,875.4l2-23.1c-60.4-5.3-95.9,43.4-97.3,45.4l18.8,13.3C536.8,910.7,565.2,871.3,612.9,875.4z"/><path d="M653.5,856.6l-2.9,23.4l-23-2.8l2.9-23.4L653.5,856.6z"/><path d="M761.9,692.6l-7.3,7.4l-10.4,10.4v233.4H103.8V56.3h640.5v381l46.4-46.4V10H57.5v980h733.1V663.9L761.9,692.6L761.9,692.6z"/><path d="M269.7,125.7h308.7v46.4H269.7V125.7z"/><path d="M175.4,245.3h482.3v26.1H175.4V245.3z"/><path d="M175.4,323.4h482.3v26.2H175.4V323.4z"/><path d="M175.4,403.6h482.3v26.2H175.4V403.6z"/><path d="M175.4,485h482.3v26H175.4V485L175.4,485z"/><path d="M855,360.2L814.2,401l87.4,87.5l41-41L855,360.2z"/><path d="M693.5,696.5L606.1,609l198.7-198.5l87.4,87.5L693.5,696.5z"/><path d="M678.4,711.8l-87.5-87.4l-9.5,9.5l-24.7,112.1l112.1-24.6L678.4,711.8z"/></g>
</svg>