<?xml version="1.0" encoding="utf-8"?>
<!-- Svg Vector Icons : http://www.sfont.cn -->
<!DOCTYPE svg PUBLIC "-//W3C//DTD SVG 1.1//EN" "http://www.w3.org/Graphics/SVG/1.1/DTD/svg11.dtd">
<svg version="1.1" xmlns="http://www.w3.org/2000/svg" xmlns:xlink="http://www.w3.org/1999/xlink" x="0px" y="0px" viewBox="0 0 1000 1000" enable-background="new 0 0 1000 1000" xml:space="preserve">
<metadata> Svg Vector Icons : http://www.sfont.cn </metadata>
<g><path d="M900,730.7C838.7,683,662.2,603.8,662.2,603.8L547.5,814.6l-17-50.2l31.4-63.4l-62.8-63.4L436.3,701l31.4,63.4l-20.3,51.4L336.1,603.8c0,0-176.5,79.2-237.8,126.9C37,778.3,10,923,10,923h980C990,923,972,786.8,900,730.7L900,730.7L900,730.7z"/><path d="M263.3,314.1c0,130.9,106.2,237.1,237.1,237.1c130.9,0,237.1-106.2,237.1-237.1S631.3,77,500.4,77C369.4,77,263.3,183.1,263.3,314.1L263.3,314.1z"/></g>
</svg>