<?xml version="1.0" encoding="utf-8"?>
<!-- Svg Vector Icons : http://www.sfont.cn -->
<!DOCTYPE svg PUBLIC "-//W3C//DTD SVG 1.1//EN" "http://www.w3.org/Graphics/SVG/1.1/DTD/svg11.dtd">
<svg version="1.1" xmlns="http://www.w3.org/2000/svg" xmlns:xlink="http://www.w3.org/1999/xlink" x="0px" y="0px" viewBox="0 0 1000 1000" enable-background="new 0 0 1000 1000" xml:space="preserve">
<metadata> Svg Vector Icons : http://www.sfont.cn </metadata>
<g><path d="M970.8,634.5v172.8c0,53.1-43.2,96.2-96.1,96.2H106.1c-53.1,0-96.1-43-96.1-96.2v-634h3.3l0,0c-2.1-6-3.3-12.5-3.3-19.2c0-31.8,26-57.6,57.7-57.6h768.6c31.8,0,57.7,25.9,57.7,57.6c0,7.2-1.3,14.1-3.8,20.5c45.7,7.4,80.6,47,80.6,95v172.8H990v192.2H970.8L970.8,634.5z M932.4,442.4V269.5c0-31.9-25.8-57.7-57.7-57.7H48.4v595.6c0,31.9,25.8,57.7,57.7,57.7h768.6c31.7,0,57.7-25.8,57.7-57.7V634.5H663.2c-53,0-95.9-43.1-95.9-96.1c0-53.1,42.9-96.1,95.9-96.1H932.4L932.4,442.4z M682.5,576.9c21.2,0,38.4-17.2,38.4-38.4c0-21.2-17.2-38.4-38.4-38.4s-38.4,17.2-38.4,38.4C644.1,559.7,661.3,576.9,682.5,576.9z"/></g>
</svg>